<svg width="23" height="23" viewBox="0 0 23 23" fill="none" xmlns="http://www.w3.org/2000/svg">
<g clip-path="url(#clip0_2106_170)">
<path d="M11.5 0.71875C9.36767 0.71875 7.28323 1.35106 5.51026 2.53572C3.7373 3.72038 2.35544 5.40418 1.53943 7.37419C0.723421 9.34421 0.509917 11.512 0.925914 13.6033C1.34191 15.6947 2.36873 17.6157 3.87651 19.1235C5.38429 20.6313 7.30533 21.6581 9.39669 22.0741C11.488 22.4901 13.6558 22.2766 15.6258 21.4606C17.5958 20.6446 19.2796 19.2627 20.4643 17.4897C21.6489 15.7168 22.2813 13.6323 22.2813 11.5C22.2803 8.64093 21.1441 5.89923 19.1224 3.87756C17.1008 1.85589 14.3591 0.719703 11.5 0.71875ZM11.5 17.9688C11.2157 17.9688 10.9378 17.8844 10.7014 17.7265C10.465 17.5685 10.2807 17.344 10.1719 17.0814C10.0631 16.8187 10.0347 16.5297 10.0901 16.2508C10.1456 15.972 10.2825 15.7158 10.4835 15.5148C10.6846 15.3137 10.9407 15.1768 11.2196 15.1214C11.4984 15.0659 11.7874 15.0944 12.0501 15.2032C12.3128 15.312 12.5373 15.4962 12.6952 15.7326C12.8532 15.969 12.9375 16.2469 12.9375 16.5312C12.9364 16.9121 12.7846 17.2771 12.5152 17.5465C12.2459 17.8158 11.8809 17.9676 11.5 17.9688ZM13.1459 6.82094L12.6644 12.5853C12.6393 12.8768 12.5057 13.1483 12.2901 13.3461C12.0745 13.5439 11.7926 13.6537 11.5 13.6537C11.2074 13.6537 10.9255 13.5439 10.7099 13.3461C10.4943 13.1483 10.3607 12.8768 10.3356 12.5853L9.85407 6.82094C9.8333 6.59766 9.85817 6.37249 9.92718 6.15914C9.99618 5.94578 10.1079 5.74869 10.2555 5.57986C10.403 5.41103 10.5834 5.27399 10.7856 5.17707C10.9878 5.08016 11.2077 5.0254 11.4317 5.01613C11.6558 5.00685 11.8794 5.04326 12.0889 5.12313C12.2984 5.20299 12.4895 5.32466 12.6505 5.48071C12.8116 5.63677 12.9392 5.82395 13.0256 6.03088C13.112 6.23781 13.1531 6.68438 13.1531 6.68438C13.1531 6.68438 13.1519 6.77568 13.1459 6.82094Z" fill="white"/>
<path d="M13.1459 6.82094L12.6644 12.5853C12.6393 12.8768 12.5057 13.1483 12.2901 13.3461C12.0745 13.5439 11.7926 13.6537 11.5 13.6537C11.2074 13.6537 10.9255 13.5439 10.7099 13.3461C10.4943 13.1483 10.3607 12.8768 10.3356 12.5853L9.85407 6.82094C9.8333 6.59766 9.85817 6.37249 9.92718 6.15914C9.99618 5.94578 10.1079 5.74869 10.2555 5.57986C10.403 5.41103 10.5834 5.27399 10.7856 5.17707C10.9878 5.08016 11.2077 5.0254 11.4317 5.01613C11.6558 5.00685 11.8794 5.04326 12.0889 5.12313C12.2984 5.20299 12.4895 5.32466 12.6505 5.48071C12.8116 5.63677 12.9392 5.82395 13.0256 6.03088C13.112 6.23781 13.1531 6.68438 13.1531 6.68438C13.1531 6.68438 13.1519 6.77568 13.1459 6.82094Z" fill="#303443"/>
<path d="M11.5 17.9688C11.2157 17.9688 10.9378 17.8844 10.7014 17.7265C10.465 17.5685 10.2807 17.344 10.1719 17.0814C10.0631 16.8187 10.0347 16.5297 10.0901 16.2508C10.1456 15.972 10.2825 15.7158 10.4835 15.5148C10.6846 15.3137 10.9407 15.1768 11.2196 15.1214C11.4984 15.0659 11.7874 15.0944 12.0501 15.2032C12.3128 15.312 12.5373 15.4962 12.6952 15.7326C12.8532 15.969 12.9375 16.2469 12.9375 16.5312C12.9364 16.9121 12.7846 17.2771 12.5152 17.5465C12.2459 17.8158 11.8809 17.9676 11.5 17.9688Z" fill="#303443"/>
</g>
<defs>
<clipPath id="clip0_2106_170">
<rect width="23" height="23" fill="white"/>
</clipPath>
</defs>
</svg>
