<svg width="24" height="24" viewBox="0 0 24 24" fill="none" xmlns="http://www.w3.org/2000/svg">
<path d="M20.0176 5.84981C18.5401 2.75231 15.4951 0.794809 12.0676 0.749809C8.63255 0.704809 5.58755 2.59481 4.05755 5.69981C2.46755 8.91731 2.84255 12.6448 5.04755 15.4423L10.7401 22.6723C11.0326 23.0398 11.4676 23.2498 11.9326 23.2498C12.3976 23.2498 12.8326 23.0398 13.1251 22.6723L18.9676 15.2473C21.0901 12.5473 21.4876 8.95481 20.0176 5.85731V5.84981ZM17.7976 14.3173L11.9251 21.7423L6.23255 14.5123C4.39505 12.1798 4.08005 9.05231 5.40755 6.36731C6.68255 3.78731 9.12005 2.25731 11.9401 2.25731H12.0526C14.9476 2.30231 17.4226 3.88481 18.6676 6.50231C19.9126 9.11981 19.5901 12.0373 17.7976 14.3173Z" fill="white"/>
<path d="M11.9324 5.37012C9.6749 5.37012 7.8374 7.20762 7.8374 9.46512C7.8374 11.7226 9.6749 13.5601 11.9324 13.5601C14.1899 13.5601 16.0274 11.7226 16.0274 9.46512C16.0274 7.20762 14.1899 5.37012 11.9324 5.37012ZM11.9324 12.0526C10.4999 12.0526 9.3374 10.8901 9.3374 9.45762C9.3374 8.02512 10.4999 6.86262 11.9324 6.86262C13.3649 6.86262 14.5274 8.02512 14.5274 9.45762C14.5274 10.8901 13.3649 12.0526 11.9324 12.0526Z" fill="white"/>
</svg>
