<svg width="24" height="24" viewBox="0 0 24 24" fill="none" xmlns="http://www.w3.org/2000/svg">
<path d="M4.875 17.625C4.6525 17.625 4.43499 17.691 4.24998 17.8146C4.06498 17.9382 3.92078 18.1139 3.83564 18.3195C3.75049 18.525 3.72821 18.7512 3.77162 18.9695C3.81503 19.1877 3.92217 19.3882 4.07951 19.5455C4.23684 19.7028 4.4373 19.81 4.65552 19.8534C4.87375 19.8968 5.09995 19.8745 5.30552 19.7894C5.51109 19.7042 5.68679 19.56 5.8104 19.375C5.93402 19.19 6 18.9725 6 18.75C5.99967 18.4517 5.88103 18.1658 5.67013 17.9549C5.45922 17.744 5.17327 17.6253 4.875 17.625ZM4.875 19.125C4.80083 19.125 4.72833 19.103 4.66666 19.0618C4.60499 19.0206 4.55693 18.962 4.52855 18.8935C4.50016 18.825 4.49274 18.7496 4.50721 18.6768C4.52168 18.6041 4.55739 18.5373 4.60984 18.4848C4.66228 18.4324 4.7291 18.3967 4.80184 18.3822C4.87458 18.3677 4.94998 18.3752 5.01851 18.4035C5.08703 18.4319 5.1456 18.48 5.1868 18.5417C5.22801 18.6033 5.25 18.6758 5.25 18.75C5.24989 18.8494 5.21034 18.9447 5.14004 19.015C5.06974 19.0853 4.97442 19.1249 4.875 19.125Z" fill="white"/>
<path d="M19.125 17.625C18.9025 17.625 18.685 17.691 18.5 17.8146C18.315 17.9382 18.1708 18.1139 18.0856 18.3195C18.0005 18.525 17.9782 18.7512 18.0216 18.9695C18.065 19.1877 18.1722 19.3882 18.3295 19.5455C18.4868 19.7028 18.6873 19.81 18.9055 19.8534C19.1238 19.8968 19.35 19.8745 19.5555 19.7894C19.7611 19.7042 19.9368 19.56 20.0604 19.375C20.184 19.19 20.25 18.9725 20.25 18.75C20.2497 18.4517 20.131 18.1658 19.9201 17.9549C19.7092 17.744 19.4233 17.6253 19.125 17.625ZM19.125 19.125C19.0508 19.125 18.9783 19.103 18.9167 19.0618C18.855 19.0206 18.8069 18.962 18.7785 18.8935C18.7502 18.825 18.7427 18.7496 18.7572 18.6768C18.7717 18.6041 18.8074 18.5373 18.8598 18.4848C18.9123 18.4324 18.9791 18.3967 19.0518 18.3822C19.1246 18.3677 19.2 18.3752 19.2685 18.4035C19.337 18.4319 19.3956 18.48 19.4368 18.5417C19.478 18.6033 19.5 18.6758 19.5 18.75C19.4999 18.8494 19.4603 18.9447 19.39 19.015C19.3197 19.0853 19.2244 19.1249 19.125 19.125Z" fill="white"/>
<path d="M23.5655 12.547L20.1905 7.29703C20.1565 7.24424 20.1098 7.20083 20.0547 7.17077C19.9996 7.14071 19.9378 7.12498 19.875 7.125H15.375V5.0625C15.3746 4.71452 15.2362 4.38091 14.9902 4.13485C14.7441 3.88879 14.4105 3.75038 14.0625 3.75H1.6875C1.33952 3.75038 1.00591 3.88879 0.759847 4.13485C0.513789 4.38091 0.375385 4.71452 0.375 5.0625V18.75C0.375 18.8495 0.414509 18.9448 0.484835 19.0152C0.555161 19.0855 0.650544 19.125 0.75 19.125H2.27719C2.36733 19.7497 2.67957 20.321 3.15668 20.7342C3.63379 21.1474 4.24383 21.3749 4.875 21.3749C5.50617 21.3749 6.11621 21.1474 6.59332 20.7342C7.07043 20.321 7.38267 19.7497 7.47281 19.125H16.5272C16.6173 19.7497 16.9296 20.321 17.4067 20.7342C17.8838 21.1474 18.4938 21.3749 19.125 21.3749C19.7562 21.3749 20.3662 21.1474 20.8433 20.7342C21.3204 20.321 21.6327 19.7497 21.7228 19.125H23.25C23.3495 19.125 23.4448 19.0855 23.5152 19.0152C23.5855 18.9448 23.625 18.8495 23.625 18.75V12.75C23.625 12.678 23.6043 12.6076 23.5655 12.547ZM4.875 20.625C4.50416 20.625 4.14165 20.515 3.83331 20.309C3.52496 20.103 3.28464 19.8101 3.14273 19.4675C3.00081 19.1249 2.96368 18.7479 3.03603 18.3842C3.10837 18.0205 3.28695 17.6864 3.54917 17.4242C3.8114 17.162 4.14549 16.9834 4.50921 16.911C4.87292 16.8387 5.24992 16.8758 5.59253 17.0177C5.93514 17.1596 6.22798 17.4 6.43401 17.7083C6.64003 18.0166 6.75 18.3792 6.75 18.75C6.7495 19.2471 6.5518 19.7238 6.20028 20.0753C5.84875 20.4268 5.37213 20.6245 4.875 20.625ZM14.625 18.375H7.47281C7.38267 17.7503 7.07043 17.179 6.59332 16.7658C6.11621 16.3526 5.50617 16.1251 4.875 16.1251C4.24383 16.1251 3.63379 16.3526 3.15668 16.7658C2.67957 17.179 2.36733 17.7503 2.27719 18.375H1.125V14.625H14.625V18.375ZM14.625 13.875H1.125V5.0625C1.12512 4.91335 1.18443 4.77035 1.28989 4.66489C1.39535 4.55943 1.53835 4.50012 1.6875 4.5H14.0625C14.2116 4.50012 14.3546 4.55943 14.4601 4.66489C14.5656 4.77035 14.6249 4.91335 14.625 5.0625V13.875ZM20.3934 9L22.5633 12.375H17.25V9H20.3934ZM19.125 20.625C18.7542 20.625 18.3916 20.515 18.0833 20.309C17.775 20.103 17.5346 19.8101 17.3927 19.4675C17.2508 19.1249 17.2137 18.7479 17.286 18.3842C17.3584 18.0205 17.537 17.6864 17.7992 17.4242C18.0614 17.162 18.3955 16.9834 18.7592 16.911C19.1229 16.8387 19.4999 16.8758 19.8425 17.0177C20.1851 17.1596 20.478 17.4 20.684 17.7083C20.89 18.0166 21 18.3792 21 18.75C20.9995 19.2471 20.8018 19.7238 20.4503 20.0753C20.0988 20.4268 19.6221 20.6245 19.125 20.625ZM22.875 15.375H22.125C22.0255 15.375 21.9302 15.3355 21.8598 15.2652C21.7895 15.1948 21.75 15.0995 21.75 15C21.75 14.9005 21.7895 14.8052 21.8598 14.7348C21.9302 14.6645 22.0255 14.625 22.125 14.625H22.875V15.375ZM22.875 13.875H22.125C21.8266 13.875 21.5405 13.9935 21.3295 14.2045C21.1185 14.4155 21 14.7016 21 15C21 15.2984 21.1185 15.5845 21.3295 15.7955C21.5405 16.0065 21.8266 16.125 22.125 16.125H22.875V18.375H21.7228C21.6327 17.7503 21.3204 17.179 20.8433 16.7658C20.3662 16.3526 19.7562 16.1251 19.125 16.1251C18.4938 16.1251 17.8838 16.3526 17.4067 16.7658C16.9296 17.179 16.6173 17.7503 16.5272 18.375H15.375V7.875H19.6702L19.9116 8.25H16.875C16.7755 8.25 16.6802 8.28951 16.6098 8.35983C16.5395 8.43016 16.5 8.52554 16.5 8.625V12.75C16.5 12.8495 16.5395 12.9448 16.6098 13.0152C16.6802 13.0855 16.7755 13.125 16.875 13.125H22.875V13.875Z" fill="white"/>
<path d="M18 13.875H16.875C16.7755 13.875 16.6802 13.9145 16.6098 13.9848C16.5395 14.0552 16.5 14.1505 16.5 14.25C16.5 14.3495 16.5395 14.4448 16.6098 14.5152C16.6802 14.5855 16.7755 14.625 16.875 14.625H18C18.0995 14.625 18.1948 14.5855 18.2652 14.5152C18.3355 14.4448 18.375 14.3495 18.375 14.25C18.375 14.1505 18.3355 14.0552 18.2652 13.9848C18.1948 13.9145 18.0995 13.875 18 13.875Z" fill="white"/>
<path d="M10.125 16.125H13.125C13.2245 16.125 13.3198 16.0855 13.3902 16.0152C13.4605 15.9448 13.5 15.8495 13.5 15.75C13.5 15.6505 13.4605 15.5552 13.3902 15.4848C13.3198 15.4145 13.2245 15.375 13.125 15.375H10.125C10.0255 15.375 9.93016 15.4145 9.85983 15.4848C9.78951 15.5552 9.75 15.6505 9.75 15.75C9.75 15.8495 9.78951 15.9448 9.85983 16.0152C9.93016 16.0855 10.0255 16.125 10.125 16.125Z" fill="white"/>
<path d="M13.125 16.5H12C11.9005 16.5 11.8052 16.5395 11.7348 16.6098C11.6645 16.6802 11.625 16.7755 11.625 16.875C11.625 16.9745 11.6645 17.0698 11.7348 17.1402C11.8052 17.2105 11.9005 17.25 12 17.25H13.125C13.2245 17.25 13.3198 17.2105 13.3902 17.1402C13.4605 17.0698 13.5 16.9745 13.5 16.875C13.5 16.7755 13.4605 16.6802 13.3902 16.6098C13.3198 16.5395 13.2245 16.5 13.125 16.5Z" fill="white"/>
</svg>
