<svg width="23" height="23" viewBox="0 0 23 23" fill="none" xmlns="http://www.w3.org/2000/svg">
<path d="M11.5 0C5.15915 0 0 5.15915 0 11.5C0 17.8409 5.15915 23 11.5 23C17.8409 23 23 17.8409 23 11.5C23 5.15915 17.8409 0 11.5 0ZM17.9273 8.47368L10.5777 15.7657C10.1454 16.198 9.45363 16.2268 8.99248 15.7945L5.1015 12.2494C4.64035 11.817 4.61153 11.0965 5.01504 10.6353C5.44737 10.1742 6.16792 10.1454 6.62907 10.5777L9.71303 13.4023L16.2845 6.83083C16.7456 6.36967 17.4662 6.36967 17.9273 6.83083C18.3885 7.29198 18.3885 8.01253 17.9273 8.47368Z" fill="white"/>
</svg>
